# xmcd
# 
# Track frame offsets:
#     150
#     17352
#     40372
#     45485
#     62420
#     89962
#     106057
#     128780
#     133430
#     145670
#     158900
#     180600
# 
# Disc length: 2534
# 
# Revision: 2
# Processed by: cddbd v1.5.2PL0 Copyright (c) Steve Scherf et al.
# Submitted via: fre:ac v1.1beta1pre3
# 
DISCID=a109e40c
DTITLE=George Gershwin - Funny Face [Adolph Deutsch]
DYEAR=1956
DGENRE=Soundtrack
TTITLE0=Overture [Fred Astaire, Kay Thompson and Chorus]
TTITLE1=How Long Has This Been Going On? [Audrey Hepburn]
TTITLE2=How Long Has This Been Going On? (instrumental reprise)
TTITLE3=Funny Face [Fred Astaire]
TTITLE4=Bonjour, Paris [Fred Astaire, Kay Thompson, Audrey Hepburn]
TTITLE5=Clap Yo' Hands [Kay Thompson and Fred Astaire]
TTITLE6=He Loves And She Loves [Audrey Hepburn and Fred Astaire]
TTITLE7=Bonjour, Paris (instrumental reprise)
TTITLE8=On How To Be Lovely [Kay Thompson And Audrey Hepburn]
TTITLE9=Basal Metabolism
TTITLE10=Let's Kiss And Make Up [Fred Astaire]
TTITLE11='S Wonderful [Audrey Hepburn and Fred Astaire]
EXTD=
EXTT0=
EXTT1=
EXTT2=
EXTT3=
EXTT4=
EXTT5=
EXTT6=
EXTT7=
EXTT8=
EXTT9=
EXTT10=
EXTT11=
PLAYORDER=
